HIERARCHY
ROOT Hips
{
	OFFSET 0.000000 0.000000 0.000000 
	CHANNELS 6 Xposition Yposition Zposition Zrotation Yrotation Xrotation
	JOINT LeftUpLeg
	{
		OFFSET 1.363060 -1.794630 0.839290 
		CHANNELS 3 Zrotation Yrotation Xrotation
		JOINT LeftLeg
		{
			OFFSET 2.448110 -6.726130 0.000000 
			CHANNELS 3 Zrotation Yrotation Xrotation
			JOINT LeftFoot
			{
				OFFSET 2.562200 -7.039590 0.000000 
				CHANNELS 3 Zrotation Yrotation Xrotation
				JOINT LeftToeBase
				{
					OFFSET 0.157640 -0.433110 2.322550 
					CHANNELS 3 Zrotation Yrotation Xrotation
					End Site
					{
						OFFSET 0.000000 0.000000 0.000000 
					}
				}
			}
		}
	}
	JOINT RightUpLeg
	{
		OFFSET -1.305520 -1.794630 0.839290 
		CHANNELS 3 Zrotation Yrotation Xrotation
		JOINT RightLeg
		{
			OFFSET -2.542530 -6.985550 0.000000 
			CHANNELS 3 Zrotation Yrotation Xrotation
			JOINT RightFoot
			{
				OFFSET -2.568260 -7.056230 0.000000 
				CHANNELS 3 Zrotation Yrotation Xrotation
				JOINT RightToeBase
				{
					OFFSET -0.164730 -0.452590 2.363150 
					CHANNELS 3 Zrotation Yrotation Xrotation
					End Site
					{
						OFFSET 0.000000 0.000000 0.000000 
					}
				}
			}
		}
	}
	JOINT Spine
	{
		OFFSET 0.028270 2.035590 -0.193380 
		CHANNELS 3 Zrotation Yrotation Xrotation
		JOINT Spine1
		{
			OFFSET 0.056720 2.048850 -0.042750 
			CHANNELS 3 Zrotation Yrotation Xrotation
			JOINT Neck1
			{
				OFFSET -0.054170 1.746240 0.172020 
				CHANNELS 3 Zrotation Yrotation Xrotation
				JOINT Head
				{
					OFFSET 0.104070 1.761360 -0.123970 
					CHANNELS 3 Zrotation Yrotation Xrotation
					End Site
					{
						OFFSET 0.000000 0.000000 0.000000 
					}
				}
			}
			JOINT LeftArm
			{
				OFFSET 3.362410 1.200890 -0.311210 
				CHANNELS 3 Zrotation Yrotation Xrotation
				JOINT LeftForeArm
				{
					OFFSET 4.983000 -0.000000 -0.000000 
					CHANNELS 3 Zrotation Yrotation Xrotation
					JOINT LeftHand
					{
						OFFSET 3.483560 -0.000000 -0.000000 
						CHANNELS 3 Zrotation Yrotation Xrotation
						JOINT LeftHandIndex1
						{
							OFFSET 0.715260 -0.000000 -0.000000 
							CHANNELS 3 Zrotation Yrotation Xrotation
							End Site
							{
								OFFSET 0.000000 0.000000 0.000000 
							}
						}
					}
				}
			}
			JOINT RightArm
			{
				OFFSET -3.136600 1.374050 -0.404650 
				CHANNELS 3 Zrotation Yrotation Xrotation
				JOINT RightForeArm
				{
					OFFSET -5.241900 -0.000000 -0.000000 
					CHANNELS 3 Zrotation Yrotation Xrotation
					JOINT RightHand
					{
						OFFSET -3.444170 -0.000000 -0.000000 
						CHANNELS 3 Zrotation Yrotation Xrotation
						JOINT RightHandIndex1
						{
							OFFSET -0.622530 -0.000000 -0.000000 
							CHANNELS 3 Zrotation Yrotation Xrotation
							End Site
							{
								OFFSET 0.000000 0.000000 0.000000 
							}
						}
					}
				}
			}
		}
	}
}
MOTION
Frames: 18
Frame Time: 0.041667
-8.564837 17.869947 4.508884 2.081850 3.911567 0.957717 -26.202759 -6.816972 -6.145207 0.356717 7.322015 23.523711 2.664976 -10.409970 2.974995 0.285300 3.435100 9.492600 12.660783 11.505642 -24.926239 -2.397151 -10.726439 30.671922 2.036818 -10.692278 3.821572 -0.033500 1.180700 -3.246100 0.781368 -1.155212 -1.986945 5.010649 -0.250532 -3.152877 2.838340 -2.741927 15.434125 2.374800 -1.892400 10.791400 -82.181898 -0.710152 24.181120 14.324518 -25.864466 -4.404687 -1.311672 -3.445078 5.531231 -7.125000 0.000000 0.000000 81.387275 -1.953401 6.961381 -12.852158 19.694080 -3.073633 0.900471 -0.763744 10.710233 7.125000 0.000000 0.000000 
-8.563297 17.870563 4.634846 2.104357 4.165192 1.067182 -26.190304 -6.620250 -5.706364 0.320518 7.216974 23.247426 2.714957 -10.642953 2.749837 0.251900 3.229100 8.917200 12.225648 11.912894 -24.727832 -1.958409 -10.057750 28.485913 1.896057 -10.339651 5.132488 -0.050200 1.445900 -3.976600 0.751256 -1.108603 -1.985951 4.982481 -0.231655 -3.144283 2.982057 -2.893459 15.099078 2.449600 -1.941800 10.581800 -82.023715 -0.836102 24.437707 14.500129 -26.127394 -4.535324 -1.308589 -3.336258 5.545710 -7.125000 0.000000 0.000000 81.386806 -1.757448 6.384254 -12.440185 19.060924 -2.859063 0.987713 -0.905982 9.815293 7.125000 0.000000 0.000000 
-8.561962 17.872411 4.754752 2.044852 4.382146 1.199327 -26.072954 -6.399536 -5.334334 0.283543 7.115606 22.980264 2.775900 -10.952978 2.627493 0.224300 3.048500 8.413800 11.868389 12.475734 -24.502821 -1.555227 -9.387873 26.362803 1.754322 -10.012199 6.400591 -0.076700 1.786600 -4.916200 0.763410 -1.117486 -1.982419 5.038213 -0.244854 -3.052496 2.990646 -2.895711 15.048518 2.453500 -1.939500 10.576500 -81.957954 -1.127277 24.499812 14.585382 -26.249878 -4.606773 -1.304348 -3.245367 5.454951 -7.125000 0.000000 0.000000 81.289931 -1.544669 5.804301 -12.170795 18.663588 -2.734706 0.976013 -1.014472 10.490141 7.125000 0.000000 0.000000 
-8.561654 17.871589 4.869730 1.816571 4.645736 1.307506 -25.749197 -6.295787 -4.943099 0.245639 7.020141 22.724041 2.836624 -11.250666 2.547075 0.207400 2.932400 8.090600 11.695789 13.057747 -24.202790 -1.189931 -8.723039 24.321645 1.599069 -9.690556 7.781132 -0.089000 1.923600 -5.294700 0.810885 -1.134785 -1.967607 5.094382 -0.267450 -2.909308 2.889371 -2.965390 15.288418 2.376700 -1.980600 10.818600 -82.036597 -1.403316 24.386970 14.747648 -26.454351 -4.686595 -1.285615 -3.307453 5.435864 -7.125000 0.000000 0.000000 81.170509 -1.391830 5.571482 -12.218905 18.744821 -2.770593 0.887524 -0.910577 11.680443 7.125000 0.000000 0.000000 
-8.557548 17.870460 4.986145 1.748265 4.904309 1.391853 -25.632066 -6.304606 -4.493182 0.211130 6.927945 22.482163 2.879701 -11.483912 2.484489 0.239000 3.146100 8.685800 11.341793 13.428375 -23.913842 -0.856058 -8.068725 22.360612 1.364240 -9.137501 9.359804 -0.071700 1.727500 -4.753000 0.813151 -1.131801 -1.973430 5.095094 -0.268142 -2.957060 3.104106 -3.020311 15.106464 2.513100 -1.993000 10.715300 -82.038259 -1.397661 24.439080 14.960217 -26.739030 -4.797574 -1.231751 -3.406804 5.199857 -7.125000 0.000000 0.000000 81.099254 -1.384643 5.516698 -12.167816 18.658831 -2.753495 0.829856 -0.713332 11.776773 7.125000 0.000000 0.000000 
-8.555289 17.868818 5.100815 1.764211 5.174577 1.426260 -25.600965 -6.181845 -4.025059 0.184634 6.840081 22.255030 2.939142 -11.792201 2.286784 0.259200 3.275200 9.045900 10.840962 13.912883 -23.633139 -0.574222 -7.471284 20.601003 1.145253 -8.617443 10.682633 -0.030400 1.124800 -3.092200 0.808956 -1.088969 -1.967877 5.165871 -0.248092 -3.035424 3.296531 -3.073399 14.787489 2.648900 -2.008000 10.502600 -82.011099 -1.506419 24.596186 15.180803 -27.030780 -4.919526 -1.136542 -3.509965 4.693656 -7.125000 0.000000 0.000000 80.987157 -1.332688 5.556384 -11.994254 18.366419 -2.670773 0.800040 -0.482023 11.237503 7.125000 0.000000 0.000000 
-8.552415 17.868510 5.215588 1.792770 5.386849 1.483417 -25.612481 -6.131492 -3.542664 0.155987 6.748066 22.015404 2.979040 -11.988912 2.094065 0.264800 3.310300 9.143800 10.276049 14.627201 -23.416369 -0.357057 -6.972005 19.141536 0.999702 -8.286978 11.542824 -0.034500 1.198600 -3.295300 0.802357 -1.032510 -1.957104 5.210025 -0.227032 -3.025254 3.304087 -3.197454 14.780967 2.636700 -2.061600 10.562100 -82.032653 -1.705977 24.539309 15.484644 -27.422530 -5.088984 -1.031382 -3.616961 3.858144 -7.125000 0.000000 0.000000 80.952083 -1.273418 5.377703 -11.905878 18.227728 -2.632291 0.772705 -0.454218 11.161513 7.125000 0.000000 0.000000 
-8.546358 17.861734 5.326049 1.852779 5.490005 1.546880 -25.680160 -5.909414 -3.176701 0.130818 6.662186 21.800598 3.009337 -12.180247 2.044245 0.255200 3.250100 8.975900 9.859604 14.955861 -23.324519 -0.182828 -6.566603 17.993039 0.763723 -7.561753 12.349913 -0.140800 2.417900 -6.662100 0.765027 -0.918993 -1.963485 5.130176 -0.170210 -3.125530 3.315639 -3.363619 14.701851 2.624800 -2.132400 10.542900 -82.033960 -1.759369 24.527100 15.824305 -27.860982 -5.287616 -1.012608 -3.642519 3.478530 -7.125000 0.000000 0.000000 81.001441 -1.273558 5.122439 -11.885512 18.196775 -2.623125 0.769468 -0.485151 11.801313 7.125000 0.000000 0.000000 
-8.541738 17.854137 5.443799 1.797978 5.631793 1.608805 -25.646941 -5.947160 -2.681533 0.107281 6.596350 21.631241 2.992064 -12.091181 2.080810 0.254400 3.245500 8.962900 9.780747 14.875403 -23.191741 -0.034533 -6.240525 17.113325 0.409740 -6.336742 13.217673 -0.440900 4.260600 -11.810900 0.759859 -0.671292 -1.671760 5.118449 -0.121094 -1.913951 3.301691 -3.540502 14.278479 2.603000 -2.190500 10.318000 -82.116598 -2.850560 24.739644 15.947915 -28.035649 -5.373206 -1.023246 -3.604303 3.359311 -7.125000 0.000000 0.000000 80.926623 -0.146393 4.703978 -11.806976 18.073159 -2.587130 0.743297 -0.400629 12.552527 7.125000 0.000000 0.000000 
-8.541430 17.845411 5.562062 1.702501 5.805979 1.598841 -25.540391 -5.989203 -2.149420 0.097130 6.549516 21.521762 2.995191 -12.080223 1.971802 0.238000 3.139400 8.667100 9.706508 15.063317 -23.008844 0.070290 -6.013438 16.550455 0.056722 -4.972660 13.833306 -0.597900 4.949900 -13.765700 0.751723 -0.559180 -1.554876 5.071355 -0.096882 -1.457435 3.360949 -3.600608 14.172094 2.639900 -2.208800 10.286600 -82.024620 -3.389575 24.845542 15.899701 -27.977321 -5.357439 -0.994097 -3.572631 2.903271 -7.125000 0.000000 0.000000 80.868209 0.352489 4.749707 -11.732307 17.950716 -2.555083 0.711567 -0.320950 12.828374 7.125000 0.000000 0.000000 
-8.539274 17.840278 5.670367 1.716537 6.018563 1.668158 -25.551851 -5.943351 -1.814025 0.105903 6.537273 21.506118 3.034859 -12.248598 1.682383 0.206000 2.922100 8.061800 9.405118 15.314863 -23.049188 0.162834 -5.839187 16.151290 -0.414626 -3.154000 14.842423 -0.402500 4.073200 -11.282700 0.763981 -0.563200 -1.571936 5.167959 -0.097351 -1.563435 3.368956 -3.653258 14.056835 2.660900 -2.240100 10.222800 -82.093805 -3.360664 24.633219 16.019757 -28.141863 -5.457705 -1.003919 -3.460184 2.598887 -7.125000 0.000000 0.000000 80.741519 0.352256 5.237520 -11.734867 17.954885 -2.559323 0.701626 -0.319302 12.804401 7.125000 0.000000 0.000000 
-8.539993 17.831039 5.778981 1.668684 6.431808 1.710631 -25.474862 -5.990893 -1.432983 0.116644 6.533654 21.512037 3.079567 -12.441225 1.403825 0.174900 2.694200 7.428400 9.153397 15.553404 -22.971392 0.230759 -5.718090 15.905735 -0.806787 -1.504133 15.575383 -0.174900 2.694000 -7.427800 0.768006 -0.615535 -1.571104 5.192594 -0.122031 -1.663569 3.482581 -3.677911 13.839587 2.736700 -2.242900 10.097100 -82.199114 -3.197036 24.360837 16.373004 -28.608611 -5.691789 -0.992059 -3.401697 2.924683 -7.125000 0.000000 0.000000 80.749207 0.424215 5.570948 -11.756862 17.983219 -2.568740 0.715643 -0.387821 12.577628 7.125000 0.000000 0.000000 
-8.543689 17.823134 5.896012 1.359660 6.879884 1.737362 -25.108250 -6.194725 -1.012436 0.115869 6.521353 21.488334 3.109879 -12.551140 1.274243 0.189900 2.806400 7.740300 9.263108 15.830157 -22.783663 0.264642 -5.684615 15.920013 -1.115174 0.024877 15.850860 -0.270100 3.343100 -9.235500 0.762408 -0.600976 -1.548174 4.994779 -0.119181 -1.626899 3.551785 -3.750815 13.797791 2.770700 -2.267600 10.066500 -82.109782 -3.154417 24.387485 16.637329 -28.949782 -5.847405 -0.905088 -3.491822 3.094595 -7.125000 0.000000 0.000000 80.776465 0.528409 5.845197 -11.665175 17.843889 -2.523603 0.770831 -0.492791 12.530189 7.125000 0.000000 0.000000 
-8.545434 17.811534 6.017355 1.392863 7.431275 1.777537 -25.136208 -6.382916 -0.510350 0.123460 6.514075 21.496382 3.131279 -12.695313 1.204949 0.197900 2.865000 7.903100 8.939974 16.058013 -22.674134 0.273459 -5.740863 16.165893 -1.452080 1.719997 16.288005 -0.325000 3.664400 -10.134300 0.735067 -0.646951 -1.508213 4.922782 -0.155671 -1.480666 3.630009 -3.824918 13.859215 2.825100 -2.301700 10.141000 -82.055693 -3.423149 24.376476 16.682178 -28.991268 -5.855166 -0.903673 -3.556425 2.729744 -7.125000 0.000000 0.000000 80.737230 0.796906 5.989195 -11.483985 17.565002 -2.438343 0.827368 -0.649635 12.999095 7.125000 0.000000 0.000000 
-8.544099 17.797572 6.134180 1.723928 8.078219 1.815540 -25.499809 -6.479241 -0.044296 0.153114 6.543714 21.624968 3.149096 -12.907056 1.209676 0.188600 2.797000 7.714200 8.263196 16.109741 -22.561422 0.284656 -5.803451 16.427632 -1.826227 3.624701 17.045320 -0.350300 3.802900 -10.522800 0.692350 -0.768603 -1.483195 4.953283 -0.226766 -1.441825 3.706518 -3.836764 13.898562 2.880500 -2.306300 10.245400 -82.070190 -3.643961 24.360396 16.703810 -29.015002 -5.889831 -1.061566 -3.360136 2.128045 -7.125000 0.000000 0.000000 80.756133 0.993971 6.195035 -11.492617 17.578302 -2.441266 0.848172 -0.807840 13.261538 7.125000 0.000000 0.000000 
-8.551491 17.788333 6.241562 1.684067 8.584162 1.870305 -25.414873 -6.670807 0.205621 0.190117 6.612906 21.842251 3.163639 -13.008738 1.184927 0.190500 2.810600 7.751800 7.997801 16.524710 -22.330357 0.289750 -5.862129 16.679861 -2.088697 4.768053 18.369192 -0.307100 3.563000 -9.850400 0.695277 -0.810216 -1.493126 4.959798 -0.244103 -1.525368 3.490913 -3.787113 14.027647 2.760800 -2.301300 10.337800 -82.059920 -3.634967 24.241599 16.725852 -29.061620 -5.956986 -1.155798 -3.076383 1.985271 -7.125000 0.000000 0.000000 80.824827 1.147276 6.203530 -11.520644 17.611846 -2.454101 0.831734 -0.900869 13.478940 7.125000 0.000000 0.000000 
-8.560525 17.778888 6.353357 1.235640 9.136718 1.922030 -24.922367 -7.191752 0.502089 0.232465 6.712254 22.119096 3.137059 -12.688550 0.931842 0.145200 2.455600 6.766600 8.157268 17.156372 -22.065739 0.282192 -5.949019 17.022295 -2.293082 5.515835 19.908270 -0.178800 2.723300 -7.509400 0.757054 -0.851399 -1.544244 4.943075 -0.251112 -1.733153 3.333829 -3.731259 13.938635 2.669000 -2.282700 10.244100 -82.057311 -3.467344 24.202620 16.739402 -29.068796 -5.942251 -1.064566 -3.239244 2.047506 -7.125000 0.000000 0.000000 80.753549 1.128470 6.717455 -11.560877 17.660587 -2.473241 0.815282 -0.844010 13.028517 7.125000 0.000000 0.000000 
-8.562167 17.766877 6.470081 1.025483 9.949142 1.957880 -24.690503 -7.728685 0.908135 0.292123 6.831118 22.470877 3.135383 -12.590734 0.691238 0.110400 2.142300 5.899100 8.053047 17.586560 -21.751287 0.271858 -6.053010 17.438839 -2.537029 6.939825 20.923584 -0.075200 1.768600 -4.866600 0.794531 -0.971789 -1.658973 4.907843 -0.283102 -2.251995 3.259379 -3.711963 13.922505 2.652700 -2.293300 10.216200 -82.196550 -3.055975 24.156831 16.835675 -29.155779 -5.957004 -1.003075 -3.433326 2.154278 -7.125000 0.000000 0.000000 80.677460 0.814112 7.476986 -11.867392 18.106016 -2.616034 0.740639 -0.533558 11.918115 7.125000 0.000000 0.000000 
